<?xml version="1.0" encoding="UTF-8"?><svg id="b" xmlns="http://www.w3.org/2000/svg" viewBox="0 0 487.38 286.74"><g id="c"><path d="m362.19,78.66c40.94,23.92,84.18,30.92,108.87,51.34,24.69,20.42,19.83,55.35-4.23,79.58-24.05,24.44-67.3,38.39-104.65,52.22-37.34,13.82-68.46,27.73-95.9,24.47-27.44-3.05-72.81-13.42-116.27-24.47-43.15-10.84-109.46,8.92-137.24-10.36-27.77-19.07-4.19-88.36,13.77-121.44C44.5,96.92,10.41,54.94,48.74,28.92,87.39,3.1,207.22-5.88,245.06,3.79c37.84,9.88,76.18,50.95,117.12,74.87Z" style="fill:#f5f8fa;"/></g></svg>