<svg xmlns="http://www.w3.org/2000/svg" viewBox="0 0 304.1 67.44"><g id="Layer_2" data-name="Layer 2"><g id="Capa_1" data-name="Capa 1"><path d="M94.55,43.37a6.44,6.44,0,0,0-2.5-5.13,8.32,8.32,0,0,0-5.39-1.85,7.28,7.28,0,0,0-5.61,2.07,12.82,12.82,0,0,0-2.43,4,11.76,11.76,0,0,1-4.78,5.6A15.54,15.54,0,0,1,65.76,50,16.29,16.29,0,0,1,58,48.3a11.21,11.21,0,0,1-4.83-5,20.18,20.18,0,0,1-1.8-9.08v-.44c.06-5.28,1.41-9.36,4-12.13s6.18-4.23,10.78-4.23A14.26,14.26,0,0,1,73.32,19a14.91,14.91,0,0,1,5,5.06A15.85,15.85,0,0,0,81.61,28a8,8,0,0,0,5.13,1.47,7.74,7.74,0,0,0,5.33-2,6.65,6.65,0,0,0,2.31-5,7.39,7.39,0,0,0,0-.92,6.13,6.13,0,0,0,0-.74c0-3.05-1.22-6.26-3.63-9.53a26.9,26.9,0,0,0-10-7.93A33,33,0,0,0,66.11.17a34.85,34.85,0,0,0-12.65,2.3A29.66,29.66,0,0,0,36.13,19.9a38.55,38.55,0,0,0-2.37,13.76v.12a41.78,41.78,0,0,0,.94,9,34.45,34.45,0,0,0,2.83,8.05,32.09,32.09,0,0,0,4.6,6.87,27.19,27.19,0,0,0,6.7,5.52,28.51,28.51,0,0,0,8.06,3.07,44.09,44.09,0,0,0,9.56,1A32.74,32.74,0,0,0,78.84,65a26.21,26.21,0,0,0,8.9-5.77A24.77,24.77,0,0,0,92.88,52a18,18,0,0,0,1.67-7.19c0-.22,0-.44,0-.65S94.55,43.63,94.55,43.37Z" style="fill:#231f20"/><path d="M108.62,19.28a8.14,8.14,0,0,0-6,2.47,9.5,9.5,0,0,0-2.31,6.77V58a9.79,9.79,0,0,0,2.27,6.77,8,8,0,0,0,6.06,2.59,8.14,8.14,0,0,0,6.07-2.5A9.52,9.52,0,0,0,117.07,58V28.19a8.83,8.83,0,0,0-2.41-6.47A8.19,8.19,0,0,0,108.62,19.28Z" style="fill:#231f20"/><path d="M103,14.52a8.85,8.85,0,0,0,5.8,2,8.61,8.61,0,0,0,5.72-2.06,7.6,7.6,0,0,0,2.6-6,7.38,7.38,0,0,0-2.71-6.06A8.84,8.84,0,0,0,108.75.49,8.64,8.64,0,0,0,103,2.65a7.53,7.53,0,0,0-2.66,5.85A7.51,7.51,0,0,0,103,14.52Z" style="fill:#231f20"/><path d="M190.76,2.49A8.23,8.23,0,0,0,184.63,0a8,8,0,0,0-6.1,2.56,9.82,9.82,0,0,0-2.22,6.8V58a9.68,9.68,0,0,0,2.27,6.76,7.93,7.93,0,0,0,6,2.6,8.16,8.16,0,0,0,6.1-2.48A9.55,9.55,0,0,0,193.09,58V9.36A9.62,9.62,0,0,0,190.76,2.49Z" style="fill:#231f20"/><path d="M247.25,31.89A22.75,22.75,0,0,0,242,23.75a23.7,23.7,0,0,0-8.29-5.25,31.55,31.55,0,0,0-21,0,23.27,23.27,0,0,0-8.27,5.19,22.79,22.79,0,0,0-5.26,8.13,28.3,28.3,0,0,0-1.8,10.25,28.08,28.08,0,0,0,1.78,10.14,22.82,22.82,0,0,0,5.3,8.13,24.11,24.11,0,0,0,8.22,5.27,29.06,29.06,0,0,0,10.48,1.81,29.63,29.63,0,0,0,10.55-1.79,23.43,23.43,0,0,0,8.26-5.23,22.93,22.93,0,0,0,5.31-8.17A28.26,28.26,0,0,0,249,42.05,28.23,28.23,0,0,0,247.25,31.89ZM228.58,48.16a7.09,7.09,0,0,1-5.45,2.09,7.63,7.63,0,0,1-4-1,6.14,6.14,0,0,1-2.47-2.71,10.37,10.37,0,0,1-.93-4.53,10.34,10.34,0,0,1,1-4.6,6,6,0,0,1,2.48-2.69,7.74,7.74,0,0,1,3.94-.95,7.16,7.16,0,0,1,5.45,2.08c1.35,1.43,2,3.44,2,6.16A8.5,8.5,0,0,1,228.58,48.16Z" style="fill:#231f20"/><path d="M168.09,45.86c1.8-.89,3.94-3,3.94-7.76a20.91,20.91,0,0,0-2.76-10.2,21.36,21.36,0,0,0-8.33-8.15,26.13,26.13,0,0,0-13-3.1,29.7,29.7,0,0,0-10.5,1.79,22,22,0,0,0-8.21,5.27,22.67,22.67,0,0,0-5.08,8.2A29.65,29.65,0,0,0,122.44,42c0,7.71,2.36,14,7,18.54s11.14,6.89,19.32,6.89a30.88,30.88,0,0,0,9.51-1.36A18.35,18.35,0,0,0,163.21,64a16.77,16.77,0,0,0,5-3.87l.09-.12a5.56,5.56,0,0,0,1.22-3.84v-.26a6.85,6.85,0,0,0-2.07-4.3,7,7,0,0,0-3.52-2.09,7.1,7.1,0,0,0-5,.44l-.18.09a10.88,10.88,0,0,0-2.4,2l-.19.2a5.12,5.12,0,0,1-1,.69c-.21.12-.47.27-.81.49a10.09,10.09,0,0,1-2.71,1.19,12.11,12.11,0,0,1-3.16.38A8.85,8.85,0,0,1,144,53.79a8.22,8.22,0,0,1-3.19-3.4,10.74,10.74,0,0,1-1.06-3h20.12A18.58,18.58,0,0,0,168.09,45.86ZM151.36,33a4.5,4.5,0,0,1,.56.71c.36.7.64,1.6-.09,1.9h-9c-.85-.35-.33-1.52.09-2.23.1-.13.2-.25.31-.37a5.15,5.15,0,0,1,4-1.55A5.5,5.5,0,0,1,151.36,33Z" style="fill:#231f20"/><path d="M6.47,25.84h37.1S53,26.48,53,16.45C53,7.07,46.75,4.27,41.42,4.27c-6.26,0-9.49,5.61-9.49,5.61S23.05,4.27,17,13.32c0,0-16.33-.18-16.33,8.42C.65,26.08,6.47,25.84,6.47,25.84Z" style="fill:#fff"/><path d="M43.93,26.49H6.48c-.27,0-3.41.08-5.23-1.66A4.08,4.08,0,0,1,0,21.74,6.53,6.53,0,0,1,2,17c4-4,12.73-4.26,14.62-4.28C22.08,4.91,29.61,8,31.71,9c1-1.47,4.26-5.4,9.71-5.4,2.85,0,12.18.92,12.18,12.83,0,3.26-.94,5.8-2.82,7.54A10.31,10.31,0,0,1,43.93,26.49ZM6.47,25.19h37.1A9.37,9.37,0,0,0,49.91,23c1.59-1.49,2.4-3.71,2.4-6.59C52.31,5.75,44,4.91,41.42,4.91c-5.82,0-8.9,5.24-8.93,5.29l-.34.58-.57-.36c-.34-.21-8.42-5.15-14.06,3.27l-.2.29H17c-.1,0-10-.06-14,3.92a5.2,5.2,0,0,0-1.64,3.85,2.81,2.81,0,0,0,.86,2.15c1.45,1.4,4.26,1.3,4.3,1.3Z" style="fill:#231f20"/><path d="M273.05,60.89a5.2,5.2,0,0,1-.82,2.86,5.45,5.45,0,0,1-2.4,2,8.94,8.94,0,0,1-3.74.72,8.47,8.47,0,0,1-4.28-1,5.81,5.81,0,0,1-1.94-1.88,4.35,4.35,0,0,1-.74-2.29,1.55,1.55,0,0,1,1.59-1.57,1.4,1.4,0,0,1,.95.36,2.93,2.93,0,0,1,.66,1.07,7.28,7.28,0,0,0,.72,1.4,2.89,2.89,0,0,0,1.1.92,4,4,0,0,0,1.85.37,4.18,4.18,0,0,0,2.56-.74,2.19,2.19,0,0,0,1-1.83,1.91,1.91,0,0,0-.53-1.42,3.41,3.41,0,0,0-1.37-.83c-.56-.19-1.31-.39-2.25-.61a16.28,16.28,0,0,1-3.16-1,5.1,5.1,0,0,1-2-1.62,4.15,4.15,0,0,1-.75-2.53,4.32,4.32,0,0,1,.79-2.57,5,5,0,0,1,2.28-1.73,9.42,9.42,0,0,1,3.51-.6,8.56,8.56,0,0,1,2.79.4,5.81,5.81,0,0,1,2,1.06,4.44,4.44,0,0,1,1.13,1.39,3.21,3.21,0,0,1,.36,1.42,1.69,1.69,0,0,1-.45,1.15,1.45,1.45,0,0,1-1.11.5,1.3,1.3,0,0,1-.93-.3,4.22,4.22,0,0,1-.69-1A4.63,4.63,0,0,0,268,51.41a3.38,3.38,0,0,0-2.15-.55,3.74,3.74,0,0,0-2.22.6,1.76,1.76,0,0,0-.84,1.45,1.47,1.47,0,0,0,.28.91,2.36,2.36,0,0,0,.79.66,5.55,5.55,0,0,0,1,.43l1.69.45a26,26,0,0,1,2.69.77,8.09,8.09,0,0,1,2,1,4.22,4.22,0,0,1,1.31,1.51A4.78,4.78,0,0,1,273.05,60.89Z" style="fill:#231f20"/><path d="M277.06,66.45a1.87,1.87,0,0,1-1.28-.48,1.69,1.69,0,0,1-.54-1.34,1.75,1.75,0,0,1,.52-1.25,1.69,1.69,0,0,1,1.26-.53,1.81,1.81,0,0,1,1.29.52,1.72,1.72,0,0,1,.53,1.26,1.75,1.75,0,0,1-.53,1.34A1.81,1.81,0,0,1,277.06,66.45Z" style="fill:#231f20"/><path d="M294,64.17l-.84-2.2H286l-.83,2.25a8.2,8.2,0,0,1-.84,1.77,1.32,1.32,0,0,1-1.13.46A1.66,1.66,0,0,1,282,66a1.51,1.51,0,0,1-.51-1.11,2.43,2.43,0,0,1,.12-.74c.08-.26.21-.61.39-1.06l4.48-11.38.46-1.18a6,6,0,0,1,.58-1.14,2.35,2.35,0,0,1,.8-.73,2.42,2.42,0,0,1,1.22-.28,2.47,2.47,0,0,1,1.24.28,2.42,2.42,0,0,1,.8.72,5.41,5.41,0,0,1,.51.95c.14.34.32.79.53,1.36L297.24,63a5.64,5.64,0,0,1,.54,1.87,1.55,1.55,0,0,1-.51,1.12,1.68,1.68,0,0,1-1.23.51,1.58,1.58,0,0,1-.71-.15,1.33,1.33,0,0,1-.5-.41,3.7,3.7,0,0,1-.44-.78C294.23,64.75,294.1,64.44,294,64.17Zm-7-4.86h5.23l-2.64-7.23Z" style="fill:#231f20"/><path d="M302.32,66.45A1.85,1.85,0,0,1,301,66a1.69,1.69,0,0,1-.54-1.34,1.79,1.79,0,0,1,1.78-1.78,1.78,1.78,0,0,1,1.28.52,1.69,1.69,0,0,1,.54,1.26,1.72,1.72,0,0,1-.54,1.34A1.77,1.77,0,0,1,302.32,66.45Z" style="fill:#231f20"/></g></g></svg>