<?xml version="1.0" standalone="no"?>
<!DOCTYPE svg PUBLIC "-//W3C//DTD SVG 20010904//EN"
 "http://www.w3.org/TR/2001/REC-SVG-20010904/DTD/svg10.dtd">
<svg version="1.0" xmlns="http://www.w3.org/2000/svg"
 width="230.000000pt" height="230.000000pt" viewBox="0 0 230.000000 230.000000"
 preserveAspectRatio="xMidYMid meet">
<metadata>
Created by potrace 1.14, written by Peter Selinger 2001-2017
</metadata>
<g transform="translate(0.000000,230.000000) scale(0.100000,-0.100000)"
fill="#000000" stroke="none">
<path d="M1695 1633 c-107 -22 -202 -77 -285 -163 l-56 -58 -83 28 c-123 42
-249 39 -351 -8 -71 -32 -158 -107 -200 -171 -3 -5 -46 -11 -97 -15 -239 -17
-435 -82 -533 -177 -121 -118 -118 -308 6 -372 76 -39 93 -40 979 -39 473 0
871 2 885 5 170 35 272 123 316 273 23 78 22 245 -1 334 -58 224 -231 357
-475 364 -47 2 -94 1 -105 -1z"/>
</g>
</svg>
